<?xml version="1.0" encoding="UTF-8"?>
<svg width="20px" height="23px" viewBox="0 0 20 23" version="1.1" xmlns="http://www.w3.org/2000/svg" xmlns:xlink="http://www.w3.org/1999/xlink">
    <!-- Generator: Sketch 60 (88103) - https://sketch.com -->
    <title>bin</title>
    <desc>Created with Sketch.</desc>
    <g id="Page-1" stroke="none" stroke-width="1" fill="none" fill-rule="evenodd" opacity="0.429999977">
        <g id="bin" fill="#000000" fill-rule="nonzero">
            <path d="M11.9642857,18.5714286 L13.0357143,18.5714286 C13.3315811,18.5714286 13.5714286,18.3315811 13.5714286,18.0357143 L13.5714286,8.39285714 C13.5714286,8.09699031 13.3315811,7.85714286 13.0357143,7.85714286 L11.9642857,7.85714286 C11.6684189,7.85714286 11.4285714,8.09699031 11.4285714,8.39285714 L11.4285714,18.0357143 C11.4285714,18.3315811 11.6684189,18.5714286 11.9642857,18.5714286 Z M19.2857143,3.57142857 L15.6066964,3.57142857 L14.0888393,1.04017857 C13.7013623,0.394532803 13.0034383,-0.00035859415 12.2504464,-2.44016843e-07 L7.74955357,-2.44016843e-07 C6.99687993,-2.44016843e-07 6.29936688,0.394805802 5.91205357,1.04017857 L4.39330357,3.57142857 L0.714285714,3.57142857 C0.319796607,3.57142857 0,3.89122518 0,4.28571429 L0,4.99999976 C0,5.39448911 0.319796607,5.71428571 0.714285714,5.71428571 L1.42857143,5.71428571 L1.42857143,20.7142857 C1.42857143,21.897753 2.38796125,22.8571429 3.57142857,22.8571429 L16.4285714,22.8571429 C17.6120387,22.8571429 18.5714286,21.897753 18.5714286,20.7142857 L18.5714286,5.71428571 L19.2857143,5.71428571 C19.6802034,5.71428571 20,5.39448911 20,4.99999976 L20,4.28571429 C20,3.89122518 19.6802034,3.57142857 19.2857143,3.57142857 Z M7.67142857,2.27276786 C7.71999303,2.19193405 7.80748545,2.1425924 7.90178571,2.14285608 L12.0982143,2.14285608 C12.1923555,2.14274956 12.2796423,2.19207083 12.328125,2.27276786 L13.1075893,3.57142857 L6.89241071,3.57142857 L7.67142857,2.27276786 Z M16.4285714,20.7142857 L3.57142857,20.7142857 L3.57142857,5.71428571 L16.4285714,5.71428571 L16.4285714,20.7142857 Z M6.96428571,18.5714286 L8.03571429,18.5714286 C8.33158112,18.5714286 8.57142857,18.3315811 8.57142857,18.0357143 L8.57142857,8.39285714 C8.57142857,8.09699031 8.33158112,7.85714286 8.03571429,7.85714286 L6.96428571,7.85714286 C6.66841888,7.85714286 6.42857143,8.09699031 6.42857143,8.39285714 L6.42857143,18.0357143 C6.42857143,18.3315811 6.66841888,18.5714286 6.96428571,18.5714286 Z" id="Shape"></path>
        </g>
    </g>
</svg>