<svg width="19" height="24" viewBox="0 0 19 24" fill="none" xmlns="http://www.w3.org/2000/svg">
<path d="M16.0257 3H12.3014C12.3014 1.34531 10.9653 0 9.32192 0C7.67856 0 6.34246 1.34531 6.34246 3H2.61815C1.38447 3 0.38356 4.00781 0.38356 5.25V21.75C0.38356 22.9922 1.38447 24 2.61815 24H16.0257C17.2594 24 18.2603 22.9922 18.2603 21.75V5.25C18.2603 4.00781 17.2594 3 16.0257 3ZM4.85274 19.875C4.23357 19.875 3.73544 19.3734 3.73544 18.75C3.73544 18.1266 4.23357 17.625 4.85274 17.625C5.47191 17.625 5.97003 18.1266 5.97003 18.75C5.97003 19.3734 5.47191 19.875 4.85274 19.875ZM4.85274 15.375C4.23357 15.375 3.73544 14.8734 3.73544 14.25C3.73544 13.6266 4.23357 13.125 4.85274 13.125C5.47191 13.125 5.97003 13.6266 5.97003 14.25C5.97003 14.8734 5.47191 15.375 4.85274 15.375ZM4.85274 10.875C4.23357 10.875 3.73544 10.3734 3.73544 9.75C3.73544 9.12656 4.23357 8.625 4.85274 8.625C5.47191 8.625 5.97003 9.12656 5.97003 9.75C5.97003 10.3734 5.47191 10.875 4.85274 10.875ZM9.32192 1.875C9.94108 1.875 10.4392 2.37656 10.4392 3C10.4392 3.62344 9.94108 4.125 9.32192 4.125C8.70275 4.125 8.20462 3.62344 8.20462 3C8.20462 2.37656 8.70275 1.875 9.32192 1.875ZM15.2808 19.125C15.2808 19.3312 15.1132 19.5 14.9084 19.5H8.20462C7.99978 19.5 7.83219 19.3312 7.83219 19.125V18.375C7.83219 18.1688 7.99978 18 8.20462 18H14.9084C15.1132 18 15.2808 18.1688 15.2808 18.375V19.125ZM15.2808 14.625C15.2808 14.8313 15.1132 15 14.9084 15H8.20462C7.99978 15 7.83219 14.8313 7.83219 14.625V13.875C7.83219 13.6687 7.99978 13.5 8.20462 13.5H14.9084C15.1132 13.5 15.2808 13.6687 15.2808 13.875V14.625ZM15.2808 10.125C15.2808 10.3313 15.1132 10.5 14.9084 10.5H8.20462C7.99978 10.5 7.83219 10.3313 7.83219 10.125V9.375C7.83219 9.16875 7.99978 9 8.20462 9H14.9084C15.1132 9 15.2808 9.16875 15.2808 9.375V10.125Z" fill="#AAAAAA"/>
</svg>
