<svg width="18" height="23" viewBox="0 0 18 23" fill="none" xmlns="http://www.w3.org/2000/svg">
<path d="M9.06165 11.4286C11.8828 11.4286 14.1693 8.87054 14.1693 5.71429C14.1693 2.55804 11.8828 0 9.06165 0C6.24048 0 3.95402 2.55804 3.95402 5.71429C3.95402 8.87054 6.24048 11.4286 9.06165 11.4286ZM12.637 12.8571H11.9706C11.0847 13.3125 10.0991 13.5714 9.06165 13.5714C8.02416 13.5714 7.04254 13.3125 6.15269 12.8571H5.4863C2.52547 12.8571 0.123291 15.5446 0.123291 18.8571V20.7143C0.123291 21.8973 0.981214 22.8571 2.03865 22.8571H16.0846C17.1421 22.8571 18 21.8973 18 20.7143V18.8571C18 15.5446 15.5978 12.8571 12.637 12.8571Z" fill="#AAAAAA"/>
</svg>
