<svg width="74" height="74" viewBox="0 0 74 74" fill="none" xmlns="http://www.w3.org/2000/svg">
<path d="M37 0C16.5659 0 0 16.5659 0 37C0 57.4341 16.5659 74 37 74C57.4341 74 74 57.4341 74 37C74 16.5659 57.4341 0 37 0ZM37 58.2322C25.2746 58.2322 15.7678 48.7253 15.7678 37C15.7678 25.2747 25.2746 15.7678 37 15.7678C48.7254 15.7678 58.2322 25.2747 58.2322 37C58.2322 48.7253 48.7254 58.2322 37 58.2322Z" fill="#F9EFDA"/>
<path d="M4.57697 37C4.57697 17.3341 19.9205 1.25212 39.2885 0.0699878C38.5321 0.0238595 37.7683 0 37 0C16.5659 0 0 16.5659 0 37C0 57.4341 16.5659 74 37 74C37.7683 74 38.5321 73.9761 39.2885 73.93C19.9205 72.7477 4.57697 56.6659 4.57697 37Z" fill="#F6E4C1"/>
<path d="M68.1648 26.8737C67.1405 23.7202 63.0071 22.1211 61.0969 19.4945C59.1657 16.8428 58.9097 12.425 56.2579 10.4954C53.6315 8.58508 49.3612 9.69288 46.2061 8.66851C43.1628 7.67986 40.374 4.24048 37 4.24048C33.626 4.24048 30.8373 7.67986 27.7938 8.66851C24.6387 9.69288 20.3685 8.58508 17.742 10.4954C15.0903 12.425 14.8342 16.8428 12.9031 19.4945C10.9927 22.1211 6.85952 23.7201 5.83515 26.8737C4.84794 29.9186 7.21842 33.626 7.21842 37C7.21842 40.3739 4.84809 44.0813 5.83515 47.1263C6.85952 50.2798 10.9928 51.8789 12.9031 54.5053C14.8342 57.1571 15.0903 61.5748 17.742 63.5044C20.3685 65.4148 24.6387 64.307 27.7938 65.3313C30.8372 66.32 33.626 69.7595 37 69.7595C40.374 69.7595 43.1627 66.3201 46.2061 65.3313C49.3612 64.307 53.6315 65.4148 56.2579 63.5044C58.9097 61.5748 59.1657 57.1571 61.0969 54.5053C63.0073 51.8789 67.1405 50.2798 68.1648 47.1263C69.152 44.0813 66.7816 40.3739 66.7816 37C66.7817 33.6261 69.152 29.9186 68.1648 26.8737ZM37 51.2863C29.1102 51.2863 22.7136 44.8898 22.7136 37C22.7136 29.1102 29.1102 22.7137 37 22.7137C44.8898 22.7137 51.2863 29.1102 51.2863 37C51.2863 44.8898 44.8898 51.2863 37 51.2863Z" fill="#BC95E2"/>
<path d="M17.1362 54.5054C15.2258 51.8789 11.0926 50.2798 10.0681 47.1263C9.08093 44.0814 11.4514 40.3739 11.4514 37C11.4514 33.6261 9.08108 29.9187 10.0681 26.8737C11.0925 23.7202 15.2258 22.1211 17.1362 19.4945C19.0674 16.8428 19.3235 12.425 21.9752 10.4954C22.9906 9.75694 24.2533 9.35784 25.6007 9.08685C22.8565 9.35336 19.7967 9.00197 17.7421 10.4954C15.0903 12.425 14.8343 16.8428 12.9031 19.4945C10.9927 22.1211 6.85954 23.7201 5.83503 26.8737C4.84782 29.9187 7.2183 33.626 7.2183 37C7.2183 40.3739 4.84797 44.0814 5.83503 47.1263C6.8594 50.2798 10.9927 51.8789 12.9031 54.5054C14.8343 57.1571 15.0903 61.5749 17.7421 63.5044C19.7938 64.9963 22.8492 64.648 25.5917 64.9116C24.2472 64.6406 22.989 64.2415 21.975 63.5044C19.3235 61.5749 19.0674 57.1572 17.1362 54.5054Z" fill="#AC80DD"/>
<path d="M41.2331 22.7137C40.514 22.7137 39.8067 22.7673 39.1173 22.87C46.0036 23.8929 51.2863 29.8293 51.2863 37C51.2863 44.1707 46.0036 50.1071 39.1173 51.13C39.8067 51.2327 40.5139 51.2863 41.2331 51.2863C49.1229 51.2863 55.5194 44.8898 55.5194 37C55.5194 29.1102 49.1229 22.7137 41.2331 22.7137Z" fill="#AC80DD"/>
<path d="M38.5655 18.6019C37.4753 18.9573 36.3034 18.3617 35.948 17.2715L34.1042 11.6158C33.7487 10.5256 34.3444 9.35378 35.4345 8.99835C36.5247 8.64291 37.6965 9.23853 38.052 10.3287L39.8958 15.9844C40.2512 17.0747 39.6556 18.2464 38.5655 18.6019Z" fill="#FFE07D"/>
<path d="M39.379 18.1079C39.1576 18.3272 38.882 18.5 38.5649 18.6034C37.4749 18.9587 36.3032 18.3619 35.9477 17.2719L34.1041 11.6166C33.7486 10.5266 34.3441 9.35532 35.4341 8.99989C35.7512 8.8965 36.0757 8.87365 36.3834 8.91906C35.8403 9.45322 35.6127 10.2682 35.8652 11.0424L37.7089 16.6977C37.9613 17.4722 38.6255 17.9964 39.379 18.1079Z" fill="#FFD064"/>
<path d="M11.4491 55.3358C10.3392 55.0475 9.67335 53.9142 9.96154 52.8044L11.457 47.0467C11.7454 45.9369 12.8786 45.271 13.9884 45.5592C15.0983 45.8475 15.7642 46.9808 15.476 48.0906L13.9805 53.8483C13.6923 54.9581 12.5589 55.624 11.4491 55.3358Z" fill="#FFE07D"/>
<path d="M12.4019 55.3589C12.0973 55.4244 11.7719 55.4214 11.4492 55.3375C10.3395 55.0493 9.67415 53.915 9.96249 52.8054L11.458 47.0481C11.7462 45.9385 12.879 45.2729 13.9887 45.561C14.3114 45.6449 14.5972 45.8007 14.8319 46.0047C14.0864 46.1617 13.4555 46.7255 13.2508 47.5138L11.7553 53.271C11.5504 54.0594 11.8273 54.8589 12.4019 55.3589Z" fill="#FFD064"/>
<path d="M17.7782 30.8612C16.6391 30.991 15.6102 30.1727 15.4804 29.0335L14.8068 23.1232C14.6769 21.984 15.4952 20.9551 16.6344 20.8253C17.7736 20.6954 18.8025 21.5137 18.9323 22.6529L19.6059 28.5633C19.7357 29.7025 18.9176 30.7313 17.7782 30.8612Z" fill="#FFE07D"/>
<path d="M18.6746 30.54C18.4139 30.7106 18.1091 30.8247 17.7778 30.8625C16.6387 30.9923 15.6102 30.1728 15.4803 29.0338L14.8068 23.1237C14.6769 21.9846 15.4948 20.9563 16.634 20.8264C16.9654 20.7887 17.2879 20.8313 17.5802 20.9373C16.9411 21.3518 16.5549 22.1047 16.6471 22.9139L17.3207 28.824C17.4128 29.6333 17.9585 30.2798 18.6746 30.54Z" fill="#FFD064"/>
<path d="M59.6638 60.0037C59.3295 61.1005 58.1693 61.7187 57.0726 61.3844L51.3824 59.6502C50.2856 59.3159 49.6674 58.1559 50.0017 57.059C50.336 55.9622 51.496 55.344 52.5928 55.6784L58.2831 57.4126C59.3799 57.7468 59.9981 58.9069 59.6638 60.0037Z" fill="#FFE07D"/>
<path d="M59.7252 59.0533C59.7779 59.3604 59.7614 59.6853 59.6642 60.0043C59.33 61.101 58.169 61.7185 57.0723 61.3843L51.3825 59.6502C50.2858 59.316 49.6679 58.1563 50.0021 57.0596C50.0993 56.7406 50.2669 56.4617 50.4805 56.2357C50.6064 56.9869 51.1433 57.6409 51.9225 57.8784L57.6123 59.6125C58.3913 59.85 59.2018 59.6067 59.7252 59.0533Z" fill="#FFD064"/>
<path d="M35.8852 63.7795C35.0305 64.5437 33.7181 64.4704 32.9537 63.6158L28.9885 59.1814C28.2243 58.3266 28.2976 57.0142 29.1522 56.2498C30.007 55.4856 31.3194 55.5589 32.0838 56.4135L36.0489 60.8479C36.8133 61.7027 36.74 63.0152 35.8852 63.7795Z" fill="#FFE07D"/>
<path d="M36.4308 62.9998C36.3166 63.2897 36.1338 63.5589 35.8853 63.7812C35.0307 64.5454 33.7178 64.471 32.9536 63.6163L28.9887 59.1822C28.2245 58.3276 28.2978 57.0157 29.1524 56.2516C29.401 56.0293 29.6889 55.8776 29.9888 55.7953C29.7067 56.5029 29.8265 57.3406 30.3694 57.9478L34.3342 62.3819C34.8771 62.9889 35.6961 63.2013 36.4308 62.9998Z" fill="#FFD064"/>
<path d="M58.0391 25.6231C57.2283 24.8123 57.2283 23.4977 58.0391 22.6869L62.2454 18.4805C63.0562 17.6698 64.3708 17.6698 65.1816 18.4805C65.9924 19.2913 65.9924 20.6059 65.1816 21.4167L60.9753 25.6231C60.1645 26.4339 58.8499 26.4339 58.0391 25.6231Z" fill="#FFE07D"/>
<path d="M58.8484 26.1258C58.5525 26.0279 58.2736 25.8604 58.0377 25.6246C57.2271 24.8139 57.2281 23.4989 58.0387 22.6883L62.2448 18.4822C63.0554 17.6715 64.3695 17.6715 65.1801 18.4822C65.4159 18.718 65.5834 18.997 65.6823 19.2918C64.96 19.0496 64.1304 19.216 63.5545 19.7919L59.3484 23.9979C58.7726 24.5739 58.6061 25.4035 58.8484 26.1258Z" fill="#FFD064"/>
<path d="M57.1569 44.467C56.0742 44.0896 55.5024 42.9059 55.8798 41.8232L57.8377 36.206C58.2151 35.1232 59.3989 34.5514 60.4815 34.9288C61.5643 35.3063 62.1361 36.49 61.7586 37.5726L59.8007 43.1899C59.4233 44.2725 58.2397 44.8443 57.1569 44.467Z" fill="#FFE07D"/>
<path d="M58.1044 44.5673C57.7954 44.6077 57.4714 44.5784 57.1564 44.4686C56.0738 44.0912 55.5027 42.9068 55.8802 41.8241L57.8379 36.2073C58.2154 35.1247 59.3985 34.5532 60.481 34.9306C60.7959 35.0404 61.0681 35.2188 61.2854 35.4412C60.5297 35.5372 59.855 36.048 59.5871 36.817L57.6293 42.4338C57.3612 43.2028 57.5722 44.0223 58.1044 44.5673Z" fill="#FFD064"/>
</svg>
