<svg width="80" height="80" viewBox="0 0 80 80" fill="none" xmlns="http://www.w3.org/2000/svg">
<g clip-path="url(#clip0)">
<path d="M78.5062 22.9573C73.1102 22.9573 68.7358 18.5836 68.7352 13.1876V13.16C63.8604 14.5447 58.7392 11.9551 56.9652 7.20838C55.9132 7.58755 54.804 7.78287 53.6853 7.78489C49.0517 7.78758 45.0532 4.53664 44.1103 0C31.8433 4.87743 25.1192 18.1176 28.4173 30.8998C31.7154 43.682 44.0052 52.0158 57.1006 50.3495C70.196 48.684 80.0081 37.5377 80 24.3366C80 23.8328 79.9528 23.3405 79.9239 22.8428C79.4551 22.9162 78.981 22.9539 78.5062 22.9573Z" fill="#F9BB4B"/>
<path d="M52.4138 53.7931C52.4138 68.2671 40.6809 80 26.2069 80C11.7329 80 0 68.2671 0 53.7931C0 39.3191 11.7329 27.5862 26.2069 27.5862C40.6809 27.5862 52.4138 39.3191 52.4138 53.7931Z" fill="#D3843D"/>
<path d="M26.2069 52.4138C26.2069 53.9372 24.9717 55.1724 23.4483 55.1724C21.9248 55.1724 20.6897 53.9372 20.6897 52.4138C20.6897 50.8904 21.9248 49.6552 23.4483 49.6552C24.9717 49.6552 26.2069 50.8904 26.2069 52.4138Z" fill="#8B3123"/>
<path d="M37.2414 62.069C37.2414 63.5924 36.0062 64.8276 34.4828 64.8276C32.9593 64.8276 31.7242 63.5924 31.7242 62.069C31.7242 60.5455 32.9593 59.3103 34.4828 59.3103C36.0062 59.3103 37.2414 60.5455 37.2414 62.069Z" fill="#8B3123"/>
<path d="M17.931 67.5862C17.931 69.1096 16.6958 70.3448 15.1724 70.3448C13.649 70.3448 12.4138 69.1096 12.4138 67.5862C12.4138 66.0628 13.649 64.8276 15.1724 64.8276C16.6958 64.8276 17.931 66.0628 17.931 67.5862Z" fill="#8B3123"/>
<path d="M35.8621 41.3793C35.8621 42.9027 34.6269 44.1379 33.1034 44.1379C31.58 44.1379 30.3448 42.9027 30.3448 41.3793C30.3448 39.8559 31.58 38.6207 33.1034 38.6207C34.6269 38.6207 35.8621 39.8559 35.8621 41.3793Z" fill="#8B3123"/>
<path d="M16.5517 42.7586C16.5517 44.2821 15.3165 45.5172 13.7931 45.5172C12.2697 45.5172 11.0345 44.2821 11.0345 42.7586C11.0345 41.2352 12.2697 40 13.7931 40C15.3165 40 16.5517 41.2352 16.5517 42.7586Z" fill="#8B3123"/>
<path d="M7.29999 54.7676L9.25109 52.8172L12.009 55.5758L10.0586 57.5263L7.29999 54.7676Z" fill="#F9BB4B"/>
<path d="M21.0944 62.4731L23.8524 59.7144L25.8028 61.6649L23.0449 64.4235L21.0944 62.4731Z" fill="#F9BB4B"/>
<path d="M67.5862 27.0952C67.5862 28.6187 66.351 29.8539 64.8276 29.8539C63.3042 29.8539 62.069 28.6187 62.069 27.0952C62.069 25.5718 63.3042 24.3366 64.8276 24.3366C66.351 24.3366 67.5862 25.5718 67.5862 27.0952Z" fill="#8B3123"/>
<path d="M62.0689 39.509C62.0689 41.0325 60.8338 42.2677 59.3103 42.2677C57.7869 42.2677 56.5517 41.0325 56.5517 39.509C56.5517 37.9856 57.7869 36.7504 59.3103 36.7504C60.8338 36.7504 62.0689 37.9856 62.0689 39.509Z" fill="#8B3123"/>
<path d="M53.7931 20.1987C53.7931 21.7221 52.5579 22.9573 51.0345 22.9573C49.5111 22.9573 48.2759 21.7221 48.2759 20.1987C48.2759 18.6752 49.5111 17.4401 51.0345 17.4401C52.5579 17.4401 53.7931 18.6752 53.7931 20.1987Z" fill="#8B3123"/>
<path d="M41.3793 18.8194C41.3793 20.3428 40.1441 21.578 38.6207 21.578C37.0972 21.578 35.8621 20.3428 35.8621 18.8194C35.8621 17.2959 37.0972 16.0608 38.6207 16.0608C40.1441 16.0608 41.3793 17.2959 41.3793 18.8194Z" fill="#8B3123"/>
<path d="M48.6793 29.4498L50.6297 27.4987L53.3877 30.2573L51.4372 32.2077L48.6793 29.4498Z" fill="#D3843D"/>
<path d="M66.6124 35.7752L69.3703 33.0172L71.3207 34.9677L68.5628 37.7263L66.6124 35.7752Z" fill="#D3843D"/>
<path d="M32.1289 52.0104L34.0793 50.0599L36.838 52.8179L34.8869 54.769L32.1289 52.0104Z" fill="#F9BB4B"/>
<path d="M21.0944 37.6455L23.8524 34.8869L25.8035 36.838L23.0449 39.5959L21.0944 37.6455Z" fill="#F9BB4B"/>
<path d="M26.6117 71.3207L28.5621 69.3703L31.3207 72.1282L29.3696 74.0787L26.6117 71.3207Z" fill="#F9BB4B"/>
<path d="M43.1627 48.68L45.9207 45.922L47.8718 47.8724L45.1132 50.6304L43.1627 48.68Z" fill="#F9BB4B"/>
<path d="M41.7827 57.5276L43.7338 55.5765L46.4918 58.3351L44.5413 60.2856L41.7827 57.5276Z" fill="#F9BB4B"/>
<path d="M43.1627 12.3269L45.9213 9.56896L47.8718 11.5194L45.1138 14.278L43.1627 12.3269Z" fill="#D3843D"/>
<path d="M56.9572 20.6034L59.7151 17.8455L61.6662 19.7959L58.9076 22.5546L56.9572 20.6034Z" fill="#D3843D"/>
</g>
<defs>
<clipPath id="clip0">
<rect width="80" height="80" fill="white"/>
</clipPath>
</defs>
</svg>
