<svg width="76" height="76" viewBox="0 0 76 76" fill="none" xmlns="http://www.w3.org/2000/svg">
<g clip-path="url(#clip0)">
<path d="M45.7217 17.5835C45.2097 17.5835 44.7435 17.2385 44.6113 16.7201C43.5641 12.6178 44.4182 7.41317 44.9946 4.76565C42.8445 5.29156 40.5843 6.59908 38.2546 8.66793C35.6401 10.9896 33.7666 13.5472 33.0824 14.5393C32.7224 15.0606 32.0086 15.1916 31.4867 14.8321C30.9655 14.4721 30.8344 13.7583 31.1939 13.2364C32.4029 11.4842 38.8199 2.71652 46.4401 2.22888C46.8118 2.20452 47.1713 2.3634 47.4055 2.65273C47.6392 2.94265 47.718 3.32766 47.6166 3.68542C47.5963 3.75906 45.55 11.1258 46.8338 16.153C46.9903 16.7665 46.6198 17.391 46.0064 17.5475C45.9107 17.5719 45.8156 17.5835 45.7217 17.5835Z" fill="#EAB765"/>
<path d="M36.7406 19.8802C35.7792 22.8095 32.589 24.3727 29.6144 23.372C26.6393 22.3712 25.0065 19.1855 25.9679 16.2562C26.9286 13.3269 30.0018 12.1214 32.9763 13.1216C35.9514 14.1224 37.7014 16.9509 36.7406 19.8802Z" fill="#FF646F"/>
<path d="M49.8333 18.6266C50.0397 20.8271 48.4701 22.7782 46.3287 22.9835C44.1868 23.1893 42.2838 21.5716 42.0774 19.3711C41.8716 17.17 43.4661 15.4879 45.6074 15.2821C47.7493 15.0768 49.6274 16.4255 49.8333 18.6266Z" fill="#FF4755"/>
<path d="M67.6284 26.7303C67.6284 23.5152 65.022 20.9082 61.8062 20.9082H14.1932C10.978 20.9082 8.37106 23.5152 8.37106 26.7303L8.37048 68.1949H67.6295L67.6284 26.7303Z" fill="#BB8080"/>
<path d="M67.6284 26.7303C67.6284 23.5152 65.022 20.9082 61.8062 20.9082H56.9142C60.1294 20.9082 62.7363 23.5152 62.7363 26.7303L62.7369 68.1949H67.6295L67.6284 26.7303Z" fill="#AF6C6C"/>
<path d="M8.37048 42.9489H67.6295V51.9323H8.37048V42.9489Z" fill="#FDE6BF"/>
<path d="M62.7369 42.9489H67.6289V51.9323H62.7369V42.9489Z" fill="#FDD79B"/>
<path d="M67.6284 26.7303C67.6284 23.5152 65.022 20.9082 61.8062 20.9082H14.1938C10.978 20.9082 8.37164 23.5152 8.37164 26.7303L8.37106 32.0283C10.2776 32.9299 11.8634 34.7651 14.9899 34.7651C19.2209 34.7651 19.3931 31.536 22.6599 31.536C25.9064 31.536 26.1285 34.7651 30.3294 34.7651C34.5598 34.7651 34.7321 31.536 37.9988 31.536C41.2726 31.536 41.4355 34.7651 45.6683 34.7651C49.8994 34.7651 50.0716 31.536 53.3378 31.536C56.6121 31.536 56.775 34.7651 61.009 34.7651C64.2259 34.7651 65.705 32.8789 67.6289 31.9912L67.6284 26.7303Z" fill="#AA8080"/>
<path d="M67.6289 31.9912L67.6284 26.7303C67.6284 23.5152 65.022 20.9082 61.8062 20.9082H56.9142C60.1294 20.9082 62.7363 23.5152 62.7363 26.7303V34.5639C64.8301 34.0542 66.0872 32.7026 67.6289 31.9912Z" fill="#704444"/>
<path d="M73.5212 66.1498H2.1593C3.88895 70.778 8.31018 73.8453 13.2509 73.8453H62.4296C67.3703 73.8453 71.7916 70.778 73.5212 66.1498Z" fill="#A8D3D8"/>
<path d="M68.7051 66.1498L68.214 67.4637C66.7801 71.3016 63.1138 73.8453 59.0167 73.8453H62.4296C67.3703 73.8453 71.7916 70.778 73.5212 66.1498H68.7051Z" fill="#8EBAC5"/>
<path d="M73.6476 67.6324H2.35239C1.05298 67.6324 0 66.5789 0 65.28C0 63.9812 1.05298 62.9282 2.35239 62.9282H73.6476C74.947 62.9282 76 63.9812 76 65.28C76 66.5789 74.947 67.6324 73.6476 67.6324Z" fill="#DEECF1"/>
</g>
<defs>
<clipPath id="clip0">
<rect width="76" height="76" fill="white"/>
</clipPath>
</defs>
</svg>
