<svg width="18" height="24" viewBox="0 0 18 24" fill="none" xmlns="http://www.w3.org/2000/svg">
<path d="M15.6421 3H11.9178C11.9178 1.34531 10.5817 0 8.93836 0C7.295 0 5.9589 1.34531 5.9589 3H2.23459C1.00091 3 0 4.00781 0 5.25V21.75C0 22.9922 1.00091 24 2.23459 24H15.6421C16.8758 24 17.8767 22.9922 17.8767 21.75V5.25C17.8767 4.00781 16.8758 3 15.6421 3ZM4.46918 19.875C3.85001 19.875 3.35188 19.3734 3.35188 18.75C3.35188 18.1266 3.85001 17.625 4.46918 17.625C5.08835 17.625 5.58647 18.1266 5.58647 18.75C5.58647 19.3734 5.08835 19.875 4.46918 19.875ZM4.46918 15.375C3.85001 15.375 3.35188 14.8734 3.35188 14.25C3.35188 13.6266 3.85001 13.125 4.46918 13.125C5.08835 13.125 5.58647 13.6266 5.58647 14.25C5.58647 14.8734 5.08835 15.375 4.46918 15.375ZM4.46918 10.875C3.85001 10.875 3.35188 10.3734 3.35188 9.75C3.35188 9.12656 3.85001 8.625 4.46918 8.625C5.08835 8.625 5.58647 9.12656 5.58647 9.75C5.58647 10.3734 5.08835 10.875 4.46918 10.875ZM8.93836 1.875C9.55752 1.875 10.0556 2.37656 10.0556 3C10.0556 3.62344 9.55752 4.125 8.93836 4.125C8.31919 4.125 7.82106 3.62344 7.82106 3C7.82106 2.37656 8.31919 1.875 8.93836 1.875ZM14.8972 19.125C14.8972 19.3312 14.7296 19.5 14.5248 19.5H7.82106C7.61622 19.5 7.44863 19.3312 7.44863 19.125V18.375C7.44863 18.1688 7.61622 18 7.82106 18H14.5248C14.7296 18 14.8972 18.1688 14.8972 18.375V19.125ZM14.8972 14.625C14.8972 14.8313 14.7296 15 14.5248 15H7.82106C7.61622 15 7.44863 14.8313 7.44863 14.625V13.875C7.44863 13.6687 7.61622 13.5 7.82106 13.5H14.5248C14.7296 13.5 14.8972 13.6687 14.8972 13.875V14.625ZM14.8972 10.125C14.8972 10.3313 14.7296 10.5 14.5248 10.5H7.82106C7.61622 10.5 7.44863 10.3313 7.44863 10.125V9.375C7.44863 9.16875 7.61622 9 7.82106 9H14.5248C14.7296 9 14.8972 9.16875 14.8972 9.375V10.125Z" fill="#434343"/>
</svg>
