<svg width="23" height="20" viewBox="0 0 23 20" fill="none" xmlns="http://www.w3.org/2000/svg">
<path d="M11.1951 5.10649L3.83363 11.7791V18.9807C3.83363 19.1672 3.90094 19.346 4.02075 19.4779C4.14055 19.6097 4.30305 19.6838 4.47248 19.6838L8.94676 19.6711C9.11563 19.6701 9.2773 19.5956 9.39642 19.4639C9.51553 19.3321 9.5824 19.1538 9.5824 18.968V14.7623C9.5824 14.5758 9.6497 14.397 9.76951 14.2652C9.88931 14.1333 10.0518 14.0592 10.2212 14.0592H12.7766C12.946 14.0592 13.1085 14.1333 13.2283 14.2652C13.3482 14.397 13.4154 14.5758 13.4154 14.7623V18.9649C13.4152 19.0574 13.4315 19.1491 13.4635 19.2346C13.4955 19.3202 13.5425 19.398 13.6019 19.4635C13.6612 19.529 13.7317 19.581 13.8094 19.6164C13.887 19.6519 13.9702 19.6702 14.0543 19.6702L18.5269 19.6838C18.6964 19.6838 18.8589 19.6097 18.9787 19.4779C19.0985 19.346 19.1658 19.1672 19.1658 18.9807V11.7742L11.8059 5.10649C11.7194 5.02974 11.6116 4.98788 11.5005 4.98788C11.3894 4.98788 11.2816 5.02974 11.1951 5.10649ZM22.8232 9.64174L19.4852 6.6137V0.527303C19.4852 0.387454 19.4347 0.253332 19.3449 0.154444C19.255 0.0555551 19.1332 0 19.0061 0H16.7702C16.6431 0 16.5213 0.0555551 16.4314 0.154444C16.3415 0.253332 16.2911 0.387454 16.2911 0.527303V3.71793L12.7163 0.481164C12.3733 0.170486 11.9428 0.000621051 11.4985 0.000621051C11.0543 0.000621051 10.6238 0.170486 10.2807 0.481164L0.173884 9.64174C0.125367 9.68587 0.0852268 9.74009 0.0557571 9.80131C0.0262874 9.86252 0.00806566 9.92952 0.00213299 9.99848C-0.00379968 10.0674 0.00267301 10.137 0.0211812 10.2032C0.0396895 10.2694 0.0698704 10.331 0.11 10.3844L1.12815 11.7466C1.16817 11.8001 1.21739 11.8445 1.27301 11.877C1.32862 11.9096 1.38953 11.9298 1.45224 11.9365C1.51496 11.9431 1.57825 11.9361 1.63848 11.9158C1.69873 11.8955 1.75475 11.8623 1.80333 11.8182L11.1951 3.30487C11.2816 3.22812 11.3894 3.18626 11.5005 3.18626C11.6116 3.18626 11.7194 3.22812 11.8059 3.30487L21.1981 11.8182C21.2467 11.8624 21.3026 11.8956 21.3627 11.9159C21.4229 11.9363 21.4861 11.9434 21.5488 11.9369C21.6114 11.9304 21.6723 11.9103 21.7279 11.8779C21.7835 11.8455 21.8328 11.8013 21.8729 11.7479L22.891 10.3857C22.9311 10.332 22.9612 10.2701 22.9795 10.2036C22.9978 10.1371 23.0039 10.0673 22.9976 9.99818C22.9913 9.92905 22.9727 9.86197 22.9427 9.8008C22.9128 9.73963 22.8722 9.68558 22.8232 9.64174Z" fill="#434343"/>
</svg>
