<svg width="19" height="23" viewBox="0 0 19 23" fill="none" xmlns="http://www.w3.org/2000/svg">
<path d="M9.64386 11.4286C12.465 11.4286 14.7515 8.87054 14.7515 5.71429C14.7515 2.55804 12.465 0 9.64386 0C6.82269 0 4.53623 2.55804 4.53623 5.71429C4.53623 8.87054 6.82269 11.4286 9.64386 11.4286ZM13.2192 12.8571H12.5528C11.6669 13.3125 10.6813 13.5714 9.64386 13.5714C8.60637 13.5714 7.62475 13.3125 6.7349 12.8571H6.06851C3.10768 12.8571 0.705505 15.5446 0.705505 18.8571V20.7143C0.705505 21.8973 1.56343 22.8571 2.62086 22.8571H16.6668C17.7243 22.8571 18.5822 21.8973 18.5822 20.7143V18.8571C18.5822 15.5446 16.18 12.8571 13.2192 12.8571Z" fill="#434343"/>
</svg>
