<svg width="26" height="20" viewBox="0 0 26 20" fill="none" xmlns="http://www.w3.org/2000/svg">
<path d="M23.5389 11.3722L25.5766 3.522C25.7237 2.9552 25.2317 2.41546 24.5678 2.41546H7.63673L7.24162 0.72426C7.14317 0.302725 6.71953 0 6.22808 0H1.80852C1.23716 0 0.773987 0.405533 0.773987 0.905797V1.50966C0.773987 2.00993 1.23716 2.41546 1.80852 2.41546H4.82086L7.84894 15.3772C7.12451 15.742 6.63634 16.426 6.63634 17.2101C6.63634 18.3774 7.71708 19.3237 9.05024 19.3237C10.3834 19.3237 11.4642 18.3774 11.4642 17.2101C11.4642 16.6186 11.1863 16.0841 10.7389 15.7005H19.7759C19.3286 16.0841 19.0507 16.6186 19.0507 17.2101C19.0507 18.3774 20.1315 19.3237 21.4646 19.3237C22.7978 19.3237 23.8785 18.3774 23.8785 17.2101C23.8785 16.3733 23.323 15.6502 22.5173 15.3078L22.7551 14.3916C22.9022 13.8248 22.4102 13.285 21.7463 13.285H10.176L9.8939 12.0773H22.5301C23.0131 12.0773 23.4318 11.7846 23.5389 11.3722Z" fill="#AAAAAA"/>
</svg>
