<svg width="16" height="16" viewBox="0 0 16 16" fill="none" xmlns="http://www.w3.org/2000/svg">
<path d="M13.8058 0C14.9983 0 15.9802 0.87151 15.9997 1.96921L16 2.00255V13.9974C16 15.0997 15.03 15.9822 13.8419 15.9997L13.8058 16H3.81607C2.6236 16 1.64171 15.1285 1.62219 14.0308L1.62189 13.9974V11.4549C1.62189 11.1376 1.89271 10.8803 2.22679 10.8803C2.5561 10.8803 2.82395 11.1303 2.83154 11.4413L2.8317 11.4549V13.9974C2.8317 14.4566 3.25623 14.8428 3.79906 14.8507L3.81605 14.8508H13.8058C14.3511 14.8508 14.7812 14.4694 14.79 14.0118L14.7902 13.9974V2.00255C14.7902 1.54339 14.3657 1.15722 13.8228 1.14929L13.8058 1.14918H3.81605C3.2708 1.14918 2.84064 1.53062 2.83184 1.98823L2.8317 2.00255V4.1106C2.8317 4.42791 2.56087 4.68518 2.22679 4.68518C1.89749 4.68518 1.62963 4.43523 1.62205 4.12416L1.62189 4.1106V2.00255C1.62189 0.900341 2.59186 0.0178247 3.78 0.000268906L3.81607 0H13.8058ZM6.83338 2.78454C7.16268 2.78454 7.43053 3.03449 7.43812 3.34556L7.43828 3.35912V12.1547C7.43828 12.472 7.16743 12.7293 6.83338 12.7293C6.50407 12.7293 6.23622 12.4793 6.22863 12.1683L6.22847 12.1547V3.35912C6.22847 3.04179 6.4993 2.78454 6.83338 2.78454ZM11.3934 2.78454C11.7227 2.78454 11.9906 3.03449 11.9982 3.34556L11.9983 3.35912V12.1547C11.9983 12.472 11.7275 12.7293 11.3934 12.7293C11.0641 12.7293 10.7963 12.4793 10.7887 12.1683L10.7885 12.1547V3.35912C10.7885 3.04179 11.0594 2.78454 11.3934 2.78454ZM3.86209 8.48619C4.19617 8.48619 4.46699 8.74343 4.46699 9.06078C4.46699 9.37358 4.20383 9.62799 3.87635 9.63521L3.86209 9.63536H0.604905C0.270827 9.63536 0 9.37811 0 9.06078C0 8.74797 0.26316 8.49354 0.590645 8.48634L0.604905 8.48619H3.86209ZM3.86209 5.92265C4.19617 5.92265 4.46699 6.1799 4.46699 6.49723C4.46699 6.81005 4.20383 7.06445 3.87635 7.07167L3.86209 7.07183H0.604905C0.270827 7.07183 0 6.81458 0 6.49723C0 6.18443 0.26316 5.93003 0.590645 5.9228L0.604905 5.92265H3.86209Z" fill="#725E5A"/>
</svg>
