<svg width="18" height="18" viewBox="0 0 18 18" fill="none" xmlns="http://www.w3.org/2000/svg">
<path d="M8.92134 17.6882C4.51781 17.6882 0.948608 14.1196 0.948608 9.7155C0.948608 6.3824 2.99484 3.52828 5.8972 2.33761V2.33958C5.98298 2.30892 6.07552 2.29247 6.17255 2.29247C6.62677 2.29247 6.99759 2.66147 6.99759 3.11681C6.99759 3.47526 6.76809 3.78183 6.44677 3.89489V3.89545C4.18509 4.85761 2.59814 7.10142 2.59814 9.71493C2.59814 13.2075 5.42878 16.0381 8.92134 16.0381C12.414 16.0381 15.2447 13.2069 15.2447 9.71493C15.2447 7.10142 13.6589 4.85803 11.3954 3.89545C11.0747 3.78295 10.8458 3.47639 10.8458 3.11751C10.8458 2.66203 11.2147 2.29303 11.6703 2.29303C11.7662 2.29303 11.858 2.30948 11.9451 2.34014V2.33817C14.8498 3.52898 16.8937 6.38311 16.8937 9.71606C16.8944 14.1196 13.3245 17.6882 8.92134 17.6882ZM8.92134 9.16593C8.46656 9.16593 8.097 8.79679 8.097 8.34075V3.4612V1.79381V0.91828C8.09644 0.463921 8.46656 0.0937958 8.92134 0.0937958C9.37683 0.0937958 9.74583 0.463499 9.74583 0.91828V3.39286V5.04225V8.34033C9.74597 8.79623 9.37697 9.16593 8.92134 9.16593Z" fill="#E46161"/>
</svg>
