<svg width="18" height="19" viewBox="0 0 18 19" fill="none" xmlns="http://www.w3.org/2000/svg">
<path d="M14.67 18.069H3.33001C2.97451 18.069 2.63701 17.9075 2.40301 17.6225C2.16901 17.3375 2.06551 16.9623 2.11501 16.587L3.46501 6.57875C3.55051 5.94225 4.07251 5.4625 4.68451 5.4625H13.32C13.9275 5.4625 14.4495 5.94225 14.5395 6.57875L15.8895 16.587C15.939 16.9575 15.8355 17.3375 15.6015 17.6225C15.363 17.9075 15.0255 18.069 14.67 18.069ZM4.68001 6.51225C4.56301 6.51225 4.45951 6.60725 4.44151 6.73075L3.09151 16.739C3.07801 16.8388 3.12301 16.91 3.14551 16.9385C3.16801 16.967 3.23101 17.024 3.32551 17.024H14.6655C14.76 17.024 14.8185 16.9718 14.8455 16.9385C14.8725 16.9053 14.913 16.8388 14.8995 16.739L13.5495 6.73075C13.5315 6.60725 13.4325 6.51225 13.311 6.51225H4.68001Z" fill="#725E5A"/>
<path d="M5.54407 7.98C5.54407 8.16897 5.61518 8.3502 5.74177 8.48382C5.86836 8.61744 6.04005 8.69251 6.21907 8.69251C6.39809 8.69251 6.56978 8.61744 6.69636 8.48382C6.82295 8.3502 6.89406 8.16897 6.89406 7.98C6.89406 7.79104 6.82295 7.60981 6.69636 7.47619C6.56978 7.34257 6.39809 7.2675 6.21907 7.2675C6.04005 7.2675 5.86836 7.34257 5.74177 7.47619C5.61518 7.60981 5.54407 7.79104 5.54407 7.98Z" fill="#725E5A"/>
<path d="M11.106 7.98C11.106 8.16897 11.1771 8.3502 11.3037 8.48382C11.4302 8.61744 11.6019 8.69251 11.781 8.69251C11.96 8.69251 12.1317 8.61744 12.2583 8.48382C12.3848 8.3502 12.456 8.16897 12.456 7.98C12.456 7.79104 12.3848 7.60981 12.2583 7.47619C12.1317 7.34257 11.96 7.2675 11.781 7.2675C11.6019 7.2675 11.4302 7.34257 11.3037 7.47619C11.1771 7.60981 11.106 7.79104 11.106 7.98Z" fill="#725E5A"/>
<path d="M12.186 7.7235H11.376V4.389C11.376 3.00675 10.3095 1.881 8.99996 1.881C8.36996 1.881 7.77146 2.14225 7.32146 2.61725C6.67796 3.2965 6.62396 4.14675 6.62396 4.389V7.72825H5.81396V4.389C5.81396 3.971 5.90846 2.90225 6.74996 2.014C7.35296 1.3775 8.15396 1.026 8.99996 1.026C10.755 1.026 12.186 2.5365 12.186 4.389V7.7235Z" fill="#725E5A"/>
</svg>
