<svg width="19" height="19" viewBox="0 0 19 19" fill="none" xmlns="http://www.w3.org/2000/svg">
<path d="M9.72579 1.79836C10.938 1.79836 12.0359 2.29002 12.8308 3.08475C13.6255 3.87957 14.1171 4.97747 14.1171 6.18977C14.1171 7.402 13.6256 8.50037 12.8308 9.2948C12.6316 9.49391 12.4136 9.67382 12.1795 9.83178C13.1072 10.1827 13.94 10.7261 14.6293 11.4134C15.8863 12.6676 16.6639 14.3986 16.6639 16.3088C16.6639 16.6388 16.3962 16.9065 16.0658 16.9065C15.7359 16.9065 15.4682 16.6388 15.4682 16.3088C15.4682 14.7262 14.8261 13.2941 13.7883 12.259C12.7508 11.2243 11.317 10.5833 9.73293 10.5812H9.72579H9.7254H9.71857C8.13382 10.5833 6.70009 11.2243 5.66289 12.259C4.62506 13.2941 3.98302 14.7262 3.98302 16.3088C3.98302 16.6388 3.71526 16.9065 3.38496 16.9065C3.05498 16.9065 2.78723 16.6388 2.78723 16.3088C2.78723 14.3986 3.56489 12.6676 4.82214 11.4134C5.51083 10.7261 6.34369 10.1827 7.27139 9.83178C7.03752 9.67384 6.81954 9.49391 6.62043 9.2948C5.82595 8.50037 5.33436 7.402 5.33436 6.18977C5.33436 4.97747 5.82595 3.87957 6.62043 3.08475C7.41518 2.29002 8.51317 1.79836 9.72579 1.79836ZM11.9852 3.93042C11.407 3.35228 10.608 2.99413 9.72577 2.99413C8.84344 2.99413 8.04412 3.35228 7.46601 3.93042C6.88787 4.50854 6.52979 5.30745 6.52979 6.18979C6.52979 7.07213 6.88787 7.87104 7.46601 8.44958C8.04241 9.02593 8.83894 9.38335 9.71855 9.38544H9.72538H9.72577H9.7326C10.6121 9.38335 11.4086 9.02593 11.9851 8.44958C12.5633 7.87104 12.9214 7.07212 12.9214 6.18979C12.9214 5.30744 12.5633 4.50854 11.9852 3.93042Z" fill="#725E5A"/>
</svg>
