<svg width="16" height="17" viewBox="0 0 16 17" fill="none" xmlns="http://www.w3.org/2000/svg">
<path d="M12.7981 17H2.87395C1.28867 17 0 15.7334 0 14.179V4.43771C0 2.88164 1.28867 1.61671 2.87395 1.61671H7.41328C7.63147 1.61671 7.80704 1.78905 7.80704 2.00322C7.80704 2.21739 7.63147 2.38973 7.41328 2.38973H2.87395C1.72334 2.38973 0.787522 3.30831 0.787522 4.43771V14.179C0.787522 15.3084 1.72334 16.227 2.87395 16.227H12.7981C13.9487 16.227 14.8845 15.3084 14.8845 14.179V8.0267C14.8845 7.81253 15.0601 7.64019 15.2783 7.64019C15.4965 7.64019 15.672 7.81253 15.672 8.0267V14.179C15.672 15.7334 14.3834 17 12.7981 17ZM5.71721 11.7863C5.91835 11.3195 6.11438 10.8711 6.307 10.4411C6.39734 10.5298 6.5303 10.5716 6.66496 10.5448C11.4071 9.56435 13.6078 7.42769 13.214 4.19175C14.7737 4.17334 15.6362 3.85879 15.9124 3.21293C16.2039 2.53195 15.7743 1.67193 14.53 0.482292C13.9709 0.0422439 13.3504 -0.0983039 12.6856 0.0673417C10.5872 0.587703 8.06955 4.32393 4.99276 11.4852C4.90753 11.6809 5.00298 11.9085 5.20242 11.9905C5.25185 12.0106 5.3047 12.0206 5.35583 12.0206C5.50925 12.0223 5.65414 11.9336 5.71721 11.7863ZM14.0101 1.06122C15.3073 2.30439 15.2391 2.79296 15.1879 2.91343C15.1317 3.04227 14.7942 3.46057 12.764 3.41706C12.6481 3.4087 12.5322 3.46391 12.4555 3.55259C12.3788 3.64127 12.3464 3.76007 12.3685 3.87384C12.9447 6.89395 11.0611 8.82146 6.61212 9.76514C9.74516 2.92849 11.7327 1.09803 12.8782 0.813583C12.9924 0.785139 13.1049 0.771754 13.2123 0.771754C13.5021 0.773427 13.768 0.872145 14.0101 1.06122Z" fill="#48332F"/>
</svg>
