<svg width="26" height="20" viewBox="0 0 26 20" fill="none" xmlns="http://www.w3.org/2000/svg">
<path d="M23.6417 11.7103L25.6794 3.86013C25.8265 3.29333 25.3345 2.75359 24.6706 2.75359H7.73948L7.34437 1.06239C7.24592 0.64086 6.82228 0.338135 6.33083 0.338135H1.91127C1.33991 0.338135 0.87674 0.743668 0.87674 1.24393V1.84779C0.87674 2.34806 1.33991 2.75359 1.91127 2.75359H4.92361L7.95169 15.7153C7.22726 16.0801 6.73909 16.7641 6.73909 17.5482C6.73909 18.7155 7.81983 19.6618 9.15299 19.6618C10.4862 19.6618 11.567 18.7155 11.567 17.5482C11.567 16.9567 11.2891 16.4222 10.8417 16.0386H19.8787C19.4314 16.4222 19.1535 16.9567 19.1535 17.5482C19.1535 18.7155 20.2343 19.6618 21.5674 19.6618C22.9006 19.6618 23.9813 18.7155 23.9813 17.5482C23.9813 16.7114 23.4258 15.9883 22.6201 15.6459L22.8579 14.7297C23.005 14.1629 22.513 13.6231 21.8491 13.6231H10.2788L9.99665 12.4154H22.6329C23.1159 12.4154 23.5346 12.1227 23.6417 11.7103Z" fill="#434343"/>
</svg>
